<svg width="807" height="736" viewBox="0 0 807 736" fill="none" xmlns="http://www.w3.org/2000/svg">
<path d="M803 517C830.5 647.5 712.5 729.5 549 729.5C385.5 729.5 206.5 563.5 226 421.5C243.852 291.5 349 255.5 491 274.5C660.489 297.178 782.302 418.778 803 517Z" fill="#FF6B09" fill-opacity="0.5"/>
<path d="M580 375.5C597 553.5 404.071 730 266 730C144.5 756 0 694.571 0 556.5C0 418.429 107.611 294.527 252.5 236C354 195 563 197.5 580 375.5Z" fill="#FF2A70" fill-opacity="0.5"/>
<path d="M662 284C666.547 356 628.5 493.5 479 549C332 580.5 96 505.5 96 236C96 97.9288 222.929 0 361 0C499.071 0 651.931 124.562 662 284Z" fill="#FFD76D" fill-opacity="0.5"/>
</svg>
